<?xml version="1.0" encoding="utf-8" standalone="yes"?>
<!DOCTYPE svg PUBLIC "-//W3C//DTD SVG 1.1//EN" "http://www.w3.org/Graphics/SVG/1.1/DTD/svg11.dtd">
<svg width="724" height="448" viewBox="0 0 724 448" style="fill:none;stroke:none;fill-rule:evenodd;clip-rule:evenodd;stroke-linecap:round;stroke-linejoin:round;stroke-miterlimit:1.5;" version="1.1" xmlns="http://www.w3.org/2000/svg" xmlns:xlink="http://www.w3.org/1999/xlink"><style id="fontImports">@import url("https://fonts.googleapis.com/css2?family=Shantell+Sans:wght@300..800&amp;display=block");</style><rect id="" x="0" y="0" width="724" height="448" style="fill: #2c2c2c;"></rect><g id="items" style="isolation: isolate"><g id="blend" style="mix-blend-mode: normal"><g id="g-root-tf_1d30h167t4mj3-fill" data-item-order="-319680" transform="translate(-8, -8)"><g id="tf_1d30h167t4mj3-fill" stroke="none" fill="#2c2c2c"><g><path d="M 10 10L 730 10L 730 454L 10 454Z"></path></g></g></g><g id="g-root-1.bubble-1_fr_v4v5fe7tio7d-fill" data-item-order="-249974" transform="translate(40, 124)"><g id="1.bubble-1_fr_v4v5fe7tio7d-fill" stroke="none" fill="#2c2c2c"><g><path d="M 202 58L 10 58C 10.000001 31.4903 10 10 10 10L 202 10.000046L 202 58ZM 202 202L 202 58L 10 58.000015L 10.000004 202L 202 202ZM 10 202L 10 250L 117.068 250C 142.719 250 170 250 195 244C 195 244 202 235 202 202L 10 202Z"></path></g></g></g><g id="g-root-2.bubble-2_fr_qp1nay7tiozn-fill" data-item-order="-249944" transform="translate(256, 136)"><g id="2.bubble-2_fr_qp1nay7tiozn-fill" stroke="none" fill="#2c2c2c"><g><path d="M 202 58L 10 58C 10.000001 31.4903 10 10 10 10L 202 10.000046L 202 58ZM 202 214L 202 58L 10 58.000011L 10.000004 214L 202 214ZM 202 214L 202 262L 64.5 262C 54.2659 262 36.3634 261.3677 29 256L 17.5 246.5C 14 243 10.7851 238.9087 10.451 231.8146C 10.2146 226.7946 10 221.0268 10 216.6307L 10 214L 202 214Z"></path></g></g></g><g id="g-root-3.bubble-3_fr_hten227tipsd-fill" data-item-order="-249912" transform="translate(472, 124)"><g id="3.bubble-3_fr_hten227tipsd-fill" stroke="none" fill="#2c2c2c"><g><path d="M 10.000004 214L 202 214.000063C 202 240.5097 202 262 202 262L 10 262L 10.000004 214ZM 202 214L 202 58L 10 58.000011L 10.000004 214L 202 214ZM 202 58L 202 10.000009L 94.9317 10C 70.4032 9.999998 45.9672 13.0082 22.171 18.9572L 19.0896 19.7276C 13.7476 21.0631 10.000003 25.8629 10.000002 31.3693L 10 58L 202 58Z"></path></g></g></g><g id="g-root-tx_custommi_de7m0q7tinev-fill" data-item-order="0" transform="translate(148, 40)"><g id="tx_custommi_de7m0q7tinev-fill" stroke="none" fill="#f4f4f4"><g><text style="font: bold 25px &quot;Shantell Sans&quot;, cursive; white-space: pre;" font-weight="bold" font-size="25px" font-family="'Shantell Sans', cursive"><tspan x="17.42" y="45" dominant-baseline="ideographic">Custom Middleware Functions</tspan></text></g></g></g><g id="g-root-pin_8ye3wa7tio74-fill" data-item-order="0" transform="translate(106, 148)"></g><g id="g-root-chec_1luwmre7t38r2-fill" data-item-order="0" transform="translate(322, 160)"></g><g id="g-root-hamm_18k2lh67t4m4q-fill" data-item-order="0" transform="translate(538, 148)"></g><g id="g-root-tx_loggingr_18i767u7t385p-fill" data-item-order="0" transform="translate(82, 220)"><g id="tx_loggingr_18i767u7t385p-fill" stroke="none" fill="#f4f4f4"><g><text style="font: bold 20px &quot;Shantell Sans&quot;, cursive; white-space: pre;" font-weight="bold" font-size="20px" font-family="'Shantell Sans', cursive"><tspan x="22.67" y="35" dominant-baseline="ideographic">Logging </tspan><tspan x="16.44" y="59" dominant-baseline="ideographic">Requests</tspan></text></g></g></g><g id="g-root-tx_validati_4kg46y7t4op8-fill" data-item-order="0" transform="translate(292, 232)"><g id="tx_validati_4kg46y7t4op8-fill" stroke="none" fill="#f4f4f4"><g><text style="font: bold 20px &quot;Shantell Sans&quot;, cursive; white-space: pre;" font-weight="bold" font-size="20px" font-family="'Shantell Sans', cursive"><tspan x="12.5" y="35" dominant-baseline="ideographic">Validating </tspan><tspan x="41.36" y="59" dominant-baseline="ideographic">Data</tspan></text></g></g></g><g id="g-root-tx_enforcin_18lbjne7t4oax-fill" data-item-order="0" transform="translate(508, 220)"><g id="tx_enforcin_18lbjne7t4oax-fill" stroke="none" fill="#f4f4f4"><g><text style="font: bold 20px &quot;Shantell Sans&quot;, cursive; white-space: pre;" font-weight="bold" font-size="20px" font-family="'Shantell Sans', cursive"><tspan x="17.12" y="35" dominant-baseline="ideographic">Enforcing </tspan><tspan x="38.43" y="59" dominant-baseline="ideographic">Rules</tspan></text></g></g></g><g id="g-root-tx_afunctio_v6qnui7t39qn-fill" data-item-order="0" transform="translate(64, 280)"><g id="tx_afunctio_v6qnui7t39qn-fill" stroke="none" fill="#f4f4f4"><g><text style="font: 15px &quot;Shantell Sans&quot;, cursive; white-space: pre;" font-size="15px" font-family="'Shantell Sans', cursive"><tspan x="18.59" y="32" dominant-baseline="ideographic">A function to log </tspan><tspan x="14.23" y="50" dominant-baseline="ideographic">incoming requests </tspan><tspan x="25.51" y="68" dominant-baseline="ideographic">for monitoring.</tspan></text></g></g></g><g id="g-root-tx_afunctio_1luwmre7t4npi-fill" data-item-order="0" transform="translate(274, 292)"><g id="tx_afunctio_1luwmre7t4npi-fill" stroke="none" fill="#f4f4f4"><g><text style="font: 15px &quot;Shantell Sans&quot;, cursive; white-space: pre;" font-size="15px" font-family="'Shantell Sans', cursive"><tspan x="17.1" y="29" dominant-baseline="ideographic">A function to check </tspan><tspan x="25.29" y="47" dominant-baseline="ideographic">the integrity and </tspan><tspan x="18.23" y="65" dominant-baseline="ideographic">format of incoming </tspan><tspan x="68.4" y="83" dominant-baseline="ideographic">data.</tspan></text></g></g></g><g id="g-root-tx_afunctio_vahid67t4mq3-fill" data-item-order="0" transform="translate(490, 280)"><g id="tx_afunctio_vahid67t4mq3-fill" stroke="none" fill="#f4f4f4"><g><text style="font: 15px &quot;Shantell Sans&quot;, cursive; white-space: pre;" font-size="15px" font-family="'Shantell Sans', cursive"><tspan x="17.3" y="29" dominant-baseline="ideographic">A function to apply </tspan><tspan x="36.16" y="47" dominant-baseline="ideographic">business rules </tspan><tspan x="33.77" y="65" dominant-baseline="ideographic">during request </tspan><tspan x="47.06" y="83" dominant-baseline="ideographic">processing.</tspan></text></g></g></g><g id="g-root-tf_1d30h167t4mj3-stroke" data-item-order="-319680" transform="translate(-8, -8)"></g><g id="g-root-1.bubble-1_fr_v4v5fe7tio7d-stroke" data-item-order="-249974" transform="translate(40, 124)"><g id="1.bubble-1_fr_v4v5fe7tio7d-stroke" fill="none" stroke-linecap="round" stroke-linejoin="round" stroke-miterlimit="4" stroke="#f4f4f4" stroke-width="4"><g><path d="M 202 58C 201.3 42 203.2 26 202 10C 187.3 11.3 172.5 10.7 157.8 10C 142.1 9.2 126.5 10.4 110.8 10C 93.8 9.5 76.8 10.4 59.8 10C 43.2 9.6 26.6 11 10 10C 11 26 8.6 42.1 10 58M 202 202C 200.5 187.6 202.4 173 202 158.5C 201.5 142.2 202.2 125.8 202 109.4C 201.8 92.3 203.8 75 202 58M 10 202C 11.4 180.1 11.1 158.2 10 136.3C 8.7 110.2 10.1 84.1 10 58M 10 202C 9.8 218 9.6 234 10 250C 28.8 250.9 47.6 249.3 66.4 250C 83.2 250.6 100.3 251.8 117.1 250C 142.6 247.3 170 250.2 195 244C 195 244 201.1 235 202 202"></path><path d="M 202 58L 202 10.0001L 10.0001 10L 10 57.9999M 202 202L 202 58M 10 202L 10 58M 10 202L 10 250L 117.0683 250C 142.7191 250 170 250 195 244C 195 244 202 235 202 202"></path></g></g></g><g id="g-root-2.bubble-2_fr_qp1nay7tiozn-stroke" data-item-order="-249944" transform="translate(256, 136)"><g id="2.bubble-2_fr_qp1nay7tiozn-stroke" fill="none" stroke-linecap="round" stroke-linejoin="round" stroke-miterlimit="4" stroke="#f4f4f4" stroke-width="4"><g><path d="M 202 58C 203.5 42.1 202.5 26 202 10C 185.6 11.4 169.1 9.5 152.6 10C 135.6 10.5 118.5 8.9 101.5 10C 85.4 11 69.2 10.9 53.2 10C 38.8 9.2 24.3 11.5 10 10C 8.6 25.9 8.5 42.1 10 58M 202 214C 203.8 189.9 203.6 165.6 202 141.4C 200.2 113.7 202.6 85.8 202 58M 10 214C 9 201.9 11.1 189.8 10 177.7C 8.9 165.4 11.4 152.9 10 140.6C 8.4 126 11.6 111.2 10 96.5C 8.6 83.8 10.3 70.8 10 58M 202 214C 202.9 230 201.9 246 202 262C 177 260.9 151.9 263 126.8 262C 106.1 261.2 85.3 261.4 64.5 262C 54.3 262.3 37.2 259.9 29 256C 24.6 253.8 20.9 250.1 17.5 246.5C 15.1 242.2 11.8 238.8 10.5 231.8C 9.5 226.9 11.3 220.9 10 216.6C 9.8 215.8 9.8 214.8 10 214M 46.5 261C 33.4 260.3 31.3 253.4 27.5 244.5C 27.5 244.5 10.4 246.1 10.5 233"></path><path d="M 202 58L 202 10.0001L 10.0001 10L 10 57.9999M 202 214L 202 58M 10 214L 10 58M 202 214L 202 262L 64.5 262C 54.2659 262 36.3634 261.3677 29 256L 17.5 246.5C 14 243 10.7851 238.9087 10.451 231.8146C 10.2146 226.7946 10 221.0268 10 216.6307L 10 214M 46.5 261C 33.5 259 31 253.5 27.5 244.5C 27.5 244.5 12 246 10.5 233"></path></g></g></g><g id="g-root-3.bubble-3_fr_hten227tipsd-stroke" data-item-order="-249912" transform="translate(472, 124)"><g id="3.bubble-3_fr_hten227tipsd-stroke" fill="none" stroke-linecap="round" stroke-linejoin="round" stroke-miterlimit="4" stroke="#f4f4f4" stroke-width="4"><g><path d="M 10 214C 10.2 230 11.2 246.1 10 262C 30 264 50.3 262.8 70.4 262C 92.1 261.2 113.9 261.8 135.7 262C 157.8 262.2 179.9 262.9 202 262C 201.4 246 201.7 230 202 214M 202 214C 201.1 195.3 202.7 176.6 202 157.9C 201.3 139.6 201.7 121.3 202 103C 202.3 88 201.3 73 202 58M 10 214C 9.2 196.5 9.7 178.9 10 161.4C 10.2 145.5 8 129.6 10 113.8C 12.3 95.4 10.6 76.6 10 58M 202 58C 201.2 42 202.5 26 202 10C 166.4 11.7 130.6 8 94.9 10C 70.4 11.4 46.1 13.5 22.2 19C 21.1 19.2 20.1 19.7 19.1 19.7C 13.6 19.8 8.8 26 10 31.4C 11.9 40 10.9 49.2 10 58M 91 10C 74 12.3 48.8 14.7 29.5 27C 29.5 27 26.5 16.9 17 20.5"></path><path d="M 10 214L 10 262L 202 262L 202 214.0001M 202 214L 202 58M 10 214L 10 58M 202 58L 202 10L 94.9317 10C 70.4032 10 45.9672 13.0082 22.171 18.9572L 19.0896 19.7276C 13.7476 21.0631 10 25.8629 10 31.3693L 10 58M 91 10.000116C 74.0247 12.559216 48.9444 14.935516 29.5 27.000016C 29.5 27.000016 26.5 17.000016 17 20.500016"></path></g></g></g><g id="g-root-tx_custommi_de7m0q7tinev-stroke" data-item-order="0" transform="translate(148, 40)"></g><g id="g-root-pin_8ye3wa7tio74-stroke" data-item-order="0" transform="translate(106, 148)"><g id="pin_8ye3wa7tio74-stroke" fill="none" stroke-linecap="round" stroke-linejoin="round" stroke-miterlimit="4" stroke="#f4f4f4" stroke-width="2"><g><path d="M 61.25 33.75C 61.25 32.25 60 31.25 58.75 31.25C 46.25 30.25 33.75 31 21.25 31.25C 19.75 31.25 18.5 32.5 18.75 33.75C 20.75 44.5 19 55.5 18.75 66.25C 18.75 67.75 20 69 21.25 68.75C 28.5 66.75 36.25 68.5 43.75 68.75C 45.25 68.75 47.25 68.5 48 67C 52 63.5 55 58.5 59.5 55.5C 60.25 54 61.25 52.75 61.25 51.25C 61.25 45.5 61.5 39.5 61.25 33.75M 46.25 68.25C 47.75 64.5 46.75 60.25 46.25 56.25C 46 55 47.25 53.75 48.75 53.75C 52.75 53.75 56.75 53.5 60.75 53.75M 31.25 18.75C 32.25 22.75 34.75 27.5 38.75 26.25C 42.75 25 46.25 23 46.25 18.75C 46.25 14.5 42.75 11 38.75 11.25C 34.5 11.5 31.25 14.5 31.25 18.75M 38.75 26.25C 37.75 28.5 39 31.25 38.75 33.75M 38.75 16.25C 40.25 16 41.75 17.5 41.25 18.75M 27.5 41.25C 33.75 39.25 41 40 47.5 41.25M 27.5 48.75C 34 50.25 41 49.75 47.5 48.75M 27.5 56.25C 31.75 56 35.75 56.25 40 56.25"></path><path d="M 61.25 33.75C 61.25 32.369286 60.130711 31.25 58.75 31.25L 21.25 31.25C 19.869287 31.25 18.75 32.369286 18.75 33.75L 18.75 66.25C 18.75 67.630707 19.869287 68.75 21.25 68.75L 43.75 68.75C 45.332317 68.664192 46.837891 68.040619 48.017498 66.982498L 59.482498 55.517502C 60.540619 54.337891 61.164192 52.832317 61.25 51.25ZM 46.25 68.137497L 46.25 56.25C 46.25 54.869289 47.369286 53.75 48.75 53.75L 60.637497 53.75M 31.25 18.75C 31.25 22.892136 34.607864 26.25 38.75 26.25C 42.892136 26.25 46.25 22.892136 46.25 18.75C 46.25 14.607864 42.892136 11.25 38.75 11.25C 34.607864 11.25 31.25 14.607864 31.25 18.75ZM 38.75 26.25L 38.75 33.75M 38.75 16.25C 40.130714 16.25 41.25 17.369287 41.25 18.75M 27.5 41.25L 47.5 41.25M 27.5 48.75L 47.5 48.75M 27.5 56.25L 40 56.25"></path></g></g></g><g id="g-root-chec_1luwmre7t38r2-stroke" data-item-order="0" transform="translate(322, 160)"><g id="chec_1luwmre7t38r2-stroke" fill="none" stroke-linecap="round" stroke-linejoin="round" stroke-miterlimit="4" stroke="#f4f4f4" stroke-width="2"><g><path d="M 21.25 31.25C 29.25 31.75 37.25 30.5 45 31.25M 21.25 38.75C 26 39.75 31.25 38.25 36.25 38.75M 21.25 23.75C 27 23.5 33 22.75 38.75 23.75M 21.25 46.25C 24.5 45.25 28 47.25 31.25 46.25M 21.25 53.75C 24.5 53.25 28 52.75 31.25 53.75M 36.25 68.75C 28.75 69.75 21 70.25 13.75 68.75C 12.5 68.5 11.25 67.5 11.25 66.25C 11.5 48.75 6.25 30.5 11.25 13.75C 11.75 12.5 12.5 10.75 13.75 11.25C 24.25 14.5 36.25 8.75 47 11.25C 47.75 11.5 48.25 11.5 48.75 12C 51.75 15.25 56.25 17.25 58 21.25C 58.25 21.75 58.75 22.25 58.75 23C 58.75 25.75 59 28.5 58.75 31.25M 38.75 53.75C 38.75 62 45.75 70.5 53.75 68.75C 61.75 67 67.75 62 68.75 53.75C 69.75 45.5 62 39.25 53.75 38.75C 45.5 38.25 38.5 45.5 38.75 53.75M 60.5 49.5C 57.75 52.5 55 55.5 53.25 59C 53 59.5 52.25 59.75 51.75 59.75C 51.25 59.75 50.75 59.75 50.25 59.25C 49.25 58 47.75 57 46.5 55.5"></path><path d="M 21.25 31.25L 45 31.25M 21.25 38.75L 36.25 38.75M 21.25 23.75L 38.75 23.75M 21.25 46.25L 31.25 46.25M 21.25 53.75L 31.25 53.75M 36.25 68.75L 13.75 68.75C 12.369288 68.75 11.25 67.630707 11.25 66.25L 11.25 13.75C 11.25 12.369288 12.369288 11.25 13.75 11.25L 46.982502 11.25C 47.645489 11.250141 48.281269 11.513626 48.75 11.9825L 58.017502 21.25C 58.486374 21.718733 58.749855 22.354513 58.75 23.0175L 58.75 31.25M 38.75 53.75C 38.750004 62.034271 45.465729 68.75 53.75 68.75C 62.034271 68.75 68.75 62.034271 68.75 53.75C 68.75 45.465729 62.034271 38.750004 53.75 38.750004C 45.465729 38.750004 38.750004 45.465729 38.750004 53.75ZM 60.434998 49.389999L 53.172497 59.072498C 52.845646 59.506683 52.346893 59.778183 51.804817 59.817009C 51.262745 59.855827 50.730392 59.658173 50.345001 59.274998L 46.594997 55.524998"></path></g></g></g><g id="g-root-hamm_18k2lh67t4m4q-stroke" data-item-order="0" transform="translate(538, 148)"><g id="hamm_18k2lh67t4m4q-stroke" fill="none" stroke-linecap="round" stroke-linejoin="round" stroke-miterlimit="4" stroke="#f4f4f4" stroke-width="2"><g><path d="M 12.142857 67C 22.857143 68.714287 34 63.571426 44.285713 67M 40 67C 40.42857 63.571426 39.142857 59.714287 40 56.285713C 32.714287 59.285713 23.714285 58.85714 16.428572 56.285713C 17.714285 59.714287 15.571428 63.571426 16.428572 67M 27.999998 29.714285C 34 25.42857 38.285713 19.428572 43.42857 14.285714C 43.42857 14.285714 47.285713 10.428572 49.42857 14.285714C 51.142857 17.285715 55 18.142857 56.285713 21.142857C 56.285713 21.142857 59.285713 24.142857 56.285713 27.142857C 51.142857 32.285713 45.999996 37.42857 40.85714 42.571426C 40.85714 42.571426 37.42857 45.999996 34.857143 42.571426C 33.142857 40 31 37 27.999998 35.714287C 27.999998 35.714287 25.857143 33.142857 27.999998 29.714285M 48.571426 34.857143C 52.42857 43 64 45.999996 67.85714 54.142857"></path><path d="M 12.142857 66.957138L 44.285713 66.957138M 40 66.957138L 40 56.242855L 16.428572 56.242855L 16.428572 66.957138M 28.007166 29.659307L 43.371582 14.294886C 43.371582 14.294886 46.402039 11.264431 49.432499 14.294886L 56.220722 21.083111C 56.220722 21.083111 59.251179 24.113567 56.220722 27.144028L 40.8563 42.50845C 40.8563 42.50845 37.825844 45.538906 34.795387 42.50845L 28.007166 35.720226C 28.007166 35.720226 24.976707 32.689766 28.007166 29.659307M 48.571426 34.814285L 67.85714 54.099998"></path></g></g></g><g id="g-root-tx_loggingr_18i767u7t385p-stroke" data-item-order="0" transform="translate(82, 220)"></g><g id="g-root-tx_validati_4kg46y7t4op8-stroke" data-item-order="0" transform="translate(292, 232)"></g><g id="g-root-tx_enforcin_18lbjne7t4oax-stroke" data-item-order="0" transform="translate(508, 220)"></g><g id="g-root-tx_afunctio_v6qnui7t39qn-stroke" data-item-order="0" transform="translate(64, 280)"></g><g id="g-root-tx_afunctio_1luwmre7t4npi-stroke" data-item-order="0" transform="translate(274, 292)"></g><g id="g-root-tx_afunctio_vahid67t4mq3-stroke" data-item-order="0" transform="translate(490, 280)"></g></g></g></svg>