<?xml version="1.0" encoding="utf-8" standalone="yes"?>
<!DOCTYPE svg PUBLIC "-//W3C//DTD SVG 1.1//EN" "http://www.w3.org/Graphics/SVG/1.1/DTD/svg11.dtd">
<svg width="557" height="676" viewBox="0 0 557 676" style="fill:none;stroke:none;fill-rule:evenodd;clip-rule:evenodd;stroke-linecap:round;stroke-linejoin:round;stroke-miterlimit:1.5;" version="1.1" xmlns="http://www.w3.org/2000/svg" xmlns:xlink="http://www.w3.org/1999/xlink"><style id="fontImports">@import url("https://fonts.googleapis.com/css2?family=Shantell+Sans:wght@300..800&amp;display=block");</style><rect id="" x="0" y="0" width="556" height="676" style="fill: #2c2c2c;"></rect><g id="items" style="isolation: isolate"><g id="blend" style="mix-blend-mode: normal"><g id="g-root-tf_v3lrga5b44cs-fill" data-item-order="-370944" transform="translate(-8, -8)"><g id="tf_v3lrga5b44cs-fill" stroke="none" fill="#2c2c2c"><g><path d="M 10.000244 10L 562.000244 10L 562.000244 682L 10.000244 682Z"></path></g></g></g><g id="g-root-0.cu_sy_18lxem25bcj62-fill" data-item-order="-272154" transform="translate(238.00048828125, 100)"><g id="0.cu_sy_18lxem25bcj62-fill" stroke="none" fill="#2c2c2c"><g><path d="M 10 34L 28 10L 28 18.0001L 52 18.0001L 52 10.0002L 70 34.0002L 52 58.0002L 52 50.0001L 28 50.0001L 28 58L 10 34Z"></path></g></g></g><g id="g-root-0.cu_1_sy_18lxem25bcj63-fill" data-item-order="-272151" transform="translate(16, 183.9990234375)"></g><g id="g-root-0.cu_2_sy_1463whm5bcjyc-fill" data-item-order="-272149" transform="translate(268.00048828125, 76)"></g><g id="g-root-tx_pros_1hapa2i5b41z7-fill" data-item-order="0" transform="translate(76.00048828125, 106)"><g id="tx_pros_1hapa2i5b41z7-fill" stroke="none" fill="#f4f4f4"><g><text style="font: bold 30px &quot;Shantell Sans&quot;, cursive; white-space: pre;" font-weight="bold" font-size="30px" font-family="'Shantell Sans', cursive"><tspan x="12" y="48" dominant-baseline="ideographic">Pros</tspan></text></g></g></g><g id="g-root-tx_cons_1uljbcq5b43k2-fill" data-item-order="0" transform="translate(376.00048828125, 106)"><g id="tx_cons_1uljbcq5b43k2-fill" stroke="none" fill="#f4f4f4"><g><text style="font: bold 30px &quot;Shantell Sans&quot;, cursive; white-space: pre;" font-weight="bold" font-size="30px" font-family="'Shantell Sans', cursive"><tspan x="12" y="48" dominant-baseline="ideographic">Cons</tspan></text></g></g></g><g id="g-root-1_zs5wsa5b19fz-fill" data-item-order="0" transform="translate(16.00048828125, 220)"></g><g id="g-root-tx_finecont_8ri25b42yx-fill" data-item-order="0" transform="translate(76.00048828125, 232)"><g id="tx_finecont_8ri25b42yx-fill" stroke="none" fill="#f4f4f4"><g><text style="font: 20px &quot;Shantell Sans&quot;, cursive; white-space: pre;" font-size="20px" font-family="'Shantell Sans', cursive"><tspan x="12" y="35" dominant-baseline="ideographic">Fine control</tspan></text></g></g></g><g id="g-root-tx_limitedr_1utnhh65b2pz4-fill" data-item-order="0" transform="translate(376.00048828125, 556)"><g id="tx_limitedr_1utnhh65b2pz4-fill" stroke="none" fill="#f4f4f4"><g><text style="font: 20px &quot;Shantell Sans&quot;, cursive; white-space: pre;" font-size="20px" font-family="'Shantell Sans', cursive"><tspan x="12" y="35" dominant-baseline="ideographic">Limited </tspan><tspan x="12" y="59" dominant-baseline="ideographic">reusability</tspan></text></g></g></g><g id="g-root-tx_increase_vccenu5b2nm4-fill" data-item-order="0" transform="translate(376.00048828125, 220)"><g id="tx_increase_vccenu5b2nm4-fill" stroke="none" fill="#f4f4f4"><g><text style="font: 20px &quot;Shantell Sans&quot;, cursive; white-space: pre;" font-size="20px" font-family="'Shantell Sans', cursive"><tspan x="12" y="35" dominant-baseline="ideographic">Increased </tspan><tspan x="12" y="59" dominant-baseline="ideographic">complexity</tspan></text></g></g></g><g id="g-root-1_4g29mi5b1beu-fill" data-item-order="0" transform="translate(16.00048828125, 304)"></g><g id="g-root-tx_specific_8vvrqy5b4268-fill" data-item-order="0" transform="translate(76.00048828125, 304)"><g id="tx_specific_8vvrqy5b4268-fill" stroke="none" fill="#f4f4f4"><g><text style="font: 20px &quot;Shantell Sans&quot;, cursive; white-space: pre;" font-size="20px" font-family="'Shantell Sans', cursive"><tspan x="12" y="35" dominant-baseline="ideographic">Specific </tspan><tspan x="12" y="59" dominant-baseline="ideographic">application</tspan></text></g></g></g><g id="g-root-wren_mcygqi5bgrgp-fill" data-item-order="0" transform="translate(316.00048828125, 304)"></g><g id="g-root-tx_moremain_147cxtm5b2pz7-fill" data-item-order="0" transform="translate(376.00048828125, 304)"><g id="tx_moremain_147cxtm5b2pz7-fill" stroke="none" fill="#f4f4f4"><g><text style="font: 20px &quot;Shantell Sans&quot;, cursive; white-space: pre;" font-size="20px" font-family="'Shantell Sans', cursive"><tspan x="12" y="35" dominant-baseline="ideographic">More </tspan><tspan x="12" y="59" dominant-baseline="ideographic">maintenance</tspan></text></g></g></g><g id="g-root-unlo_2qkoq5bmaz1-fill" data-item-order="0" transform="translate(16.00048828125, 388)"></g><g id="g-root-tx_enhanced_dl2e625b2pzb-fill" data-item-order="0" transform="translate(76.00048828125, 388)"><g id="tx_enhanced_dl2e625b2pzb-fill" stroke="none" fill="#f4f4f4"><g><text style="font: 20px &quot;Shantell Sans&quot;, cursive; white-space: pre;" font-size="20px" font-family="'Shantell Sans', cursive"><tspan x="12" y="35" dominant-baseline="ideographic">Enhanced </tspan><tspan x="12" y="59" dominant-baseline="ideographic">security</tspan></text></g></g></g><g id="g-root-404_1hgxxru5bfcaw-fill" data-item-order="0" transform="translate(316.00048828125, 388)"></g><g id="g-root-tx_potentia_18n6fy25b2p6y-fill" data-item-order="0" transform="translate(376.00048828125, 388)"><g id="tx_potentia_18n6fy25b2p6y-fill" stroke="none" fill="#f4f4f4"><g><text style="font: 20px &quot;Shantell Sans&quot;, cursive; white-space: pre;" font-size="20px" font-family="'Shantell Sans', cursive"><tspan x="12" y="35" dominant-baseline="ideographic">Potential for </tspan><tspan x="12" y="59" dominant-baseline="ideographic">errors</tspan></text></g></g></g><g id="g-root-spee_1uo14je5bky6c-fill" data-item-order="0" transform="translate(16.00048828125, 472)"></g><g id="g-root-tx_optimize_i0vwai5b2p72-fill" data-item-order="0" transform="translate(76.00048828125, 472)"><g id="tx_optimize_i0vwai5b2p72-fill" stroke="none" fill="#f4f4f4"><g><text style="font: 20px &quot;Shantell Sans&quot;, cursive; white-space: pre;" font-size="20px" font-family="'Shantell Sans', cursive"><tspan x="12" y="35" dominant-baseline="ideographic">Optimized </tspan><tspan x="12" y="59" dominant-baseline="ideographic">performance</tspan></text></g></g></g><g id="g-root-2_4o6cl65bdy4v-fill" data-item-order="0" transform="translate(316.00048828125, 472)"></g><g id="g-root-tx_higherde_1lymybe5b2nm1-fill" data-item-order="0" transform="translate(376.00048828125, 460)"><g id="tx_higherde_1lymybe5b2nm1-fill" stroke="none" fill="#f4f4f4"><g><text style="font: 20px &quot;Shantell Sans&quot;, cursive; white-space: pre;" font-size="20px" font-family="'Shantell Sans', cursive"><tspan x="12" y="35" dominant-baseline="ideographic">Higher </tspan><tspan x="12" y="59" dominant-baseline="ideographic">development </tspan><tspan x="12" y="83" dominant-baseline="ideographic">time</tspan></text></g></g></g><g id="g-root-func_18hk30a5bjk0b-fill" data-item-order="0" transform="translate(16.00048828125, 556)"></g><g id="g-root-tx_customfu_qwiwje5b2oed-fill" data-item-order="0" transform="translate(76.00048828125, 556)"><g id="tx_customfu_qwiwje5b2oed-fill" stroke="none" fill="#f4f4f4"><g><text style="font: 20px &quot;Shantell Sans&quot;, cursive; white-space: pre;" font-size="20px" font-family="'Shantell Sans', cursive"><tspan x="12" y="35" dominant-baseline="ideographic">Custom </tspan><tspan x="12" y="59" dominant-baseline="ideographic">functionality</tspan></text></g></g></g><g id="g-root-stam_qv9v7e5bcidi-fill" data-item-order="0" transform="translate(316.00048828125, 556)"></g><g id="g-root-tx_routelev_vb3dbu5bchl9-fill" data-item-order="0" transform="translate(148.00048828125, 40)"><g id="tx_routelev_vb3dbu5bchl9-fill" stroke="none" fill="#f4f4f4"><g><text style="font: 20px &quot;Shantell Sans&quot;, cursive; white-space: pre;" font-size="20px" font-family="'Shantell Sans', cursive"><tspan x="15.59" y="35" dominant-baseline="ideographic">Route-level middleware</tspan></text></g></g></g><g id="g-root-4_dg2ibe5bi48y-fill" data-item-order="0" transform="translate(316.00048828125, 220)"></g><g id="g-root-tf_v3lrga5b44cs-stroke" data-item-order="-370944" transform="translate(-8, -8)"></g><g id="g-root-0.cu_sy_18lxem25bcj62-stroke" data-item-order="-272154" transform="translate(238.00048828125, 100)"><g id="0.cu_sy_18lxem25bcj62-stroke" fill="none" stroke-linecap="round" stroke-linejoin="round" stroke-miterlimit="4" stroke="#f4f4f4" stroke-width="4"><g><path d="M 10 34C 16.7 26.6 22.3 18.2 28 10C 27.7 12.7 28 15.3 28 18C 36 18 44 18.6 52 18C 52.1 15.3 52.5 12.6 52 10C 58.2 17.8 62.9 26.9 70 34C 63.9 41.9 57.9 49.9 52 58C 52.5 55.4 51.9 52.7 52 50C 44 50.8 35.8 51.8 28 50C 27 52.5 27.5 55.4 28 58C 21.4 50.5 15.6 42.3 10 34M 30.6 28.4C 32.3 32 33.1 36 35 39.5M 35.2 39.1C 36.2 35.5 38.7 32.3 39.6 28.7M 49.4 30.2C 49.1 29.9 48.6 29.8 48.4 29.4C 47.6 29.1 46.8 28.6 45.5 28.8C 44.2 28.9 43.2 29.5 43.4 30.7C 42.9 31.7 44.2 32.9 46.3 33.9C 48.4 34.9 49.1 36 49.4 37.3C 49.9 38.5 48.6 39.4 47.1 39.6C 45.5 39.7 44.4 39.4 43.9 38.5C 43.5 38.1 43.3 37.6 43 37.2"></path><path d="M 10 34L 28 10L 28 18.0001L 52 18.0001L 52 10.0002L 70 34.0002L 52 58.0002L 52 50.0001L 28 50.0001L 28 58L 10 34ZM 30.598633 28.373184L 34.998633 39.480384M 35.198633 39.097384L 39.598633 28.660484M 49.398633 30.192484C 49.065333 29.937084 48.731933 29.681784 48.398633 29.426484C 47.798633 28.851984 46.831933 28.628484 45.498633 28.756184C 44.165333 28.883884 43.465333 29.522184 43.398633 30.671184C 43.265333 31.820284 44.231933 32.905384 46.298633 33.926784C 48.431933 34.884284 49.465333 36.001384 49.398633 37.278084C 49.398633 38.554784 48.631933 39.320784 47.098633 39.576084C 45.498633 39.767584 44.431933 39.416584 43.898633 38.522884C 43.565333 38.075984 43.265333 37.629184 42.998633 37.182384"></path></g></g></g><g id="g-root-0.cu_1_sy_18lxem25bcj63-stroke" data-item-order="-272151" transform="translate(16, 183.9990234375)"><g id="0.cu_1_sy_18lxem25bcj63-stroke" fill="none" stroke-linecap="round" stroke-linejoin="round" stroke-miterlimit="4" stroke="#f4f4f4" stroke-width="2"><g><path d="M 514.000488 10.000977C 499.400488 9.900977 484.800488 10.800977 470.200488 10.000977C 457.700488 9.300977 445.000488 9.200977 432.500488 10.000977C 417.200488 11.000977 401.800488 11.300977 386.600488 10.000977C 373.400488 8.900977 360.100488 9.200977 346.900488 10.000977C 333.400488 10.800977 319.900488 9.900977 306.400488 10.000977C 291.600488 10.100977 276.600488 8.900977 261.800488 10.000977C 246.900488 11.100977 231.900488 8.600977 217.100488 10.000977C 202.100488 11.400977 187.000488 10.700977 172.000488 10.000977C 159.100488 9.400977 146.100488 9.400977 133.200488 10.000977C 118.600488 10.700977 104.000488 10.700977 89.500488 10.000977C 76.300488 9.300977 63.100488 8.500977 50.000488 10.000977C 36.800488 11.600977 23.300488 10.600977 10.000488 10.000977"></path><path d="M 514.0005 10L 10 10.0008"></path></g></g></g><g id="g-root-0.cu_2_sy_1463whm5bcjyc-stroke" data-item-order="-272149" transform="translate(268.00048828125, 76)"><g id="0.cu_2_sy_1463whm5bcjyc-stroke" fill="none" stroke-linecap="round" stroke-linejoin="round" stroke-miterlimit="4" stroke="#f4f4f4" stroke-width="2"><g><path d="M 10 298C 11.4 270 9.1 242 10 214M 10 382C 9.3 354 11.7 326 10 298M 10 466C 9.6 438 10.4 410 10 382M 10 550C 8.8 522 10.1 494 10 466M 10 214C 9.2 182 8.5 150 10 118M 10 118C 9 105.4 10.9 92.6 10 80M 10 36C 10.2 27.3 8.4 18.5 10 10"></path><path d="M 10.0001 298L 10 214M 10.0001 382L 10 298M 10.0001 466L 10 382M 10.0001 550L 10 466M 10.0001 214L 10 118M 10 118L 10 80M 10 36L 10 10"></path></g></g></g><g id="g-root-tx_pros_1hapa2i5b41z7-stroke" data-item-order="0" transform="translate(76.00048828125, 106)"></g><g id="g-root-tx_cons_1uljbcq5b43k2-stroke" data-item-order="0" transform="translate(376.00048828125, 106)"></g><g id="g-root-1_zs5wsa5b19fz-stroke" data-item-order="0" transform="translate(16.00048828125, 220)"><g id="1_zs5wsa5b19fz-stroke" fill="none" stroke-linecap="round" stroke-linejoin="round" stroke-miterlimit="4" stroke="#f4f4f4" stroke-width="2"><g><path d="M 13 11C 26.799999 8.8 41.200001 12.8 55 11C 55 11 56.400002 11.2 57 13C 61.400002 26.200001 60.200001 41.400002 57 55C 57 55 57 56.599998 55 57C 41.400002 60.400002 27 57.400002 13 57C 13 57 10.6 57 11 55C 14 41.400002 11.6 27 11 13C 11 13 11 11.6 13 11M 34 39C 35.400002 34.599998 33.200001 29.6 34 25M 47 39C 47 37.599998 46.799999 36.200001 47 35M 21 27C 20 23.799999 20.4 20.4 21 17M 21 39C 20.6 36.400002 20.799999 33.599998 21 31M 47 31C 45.799999 26.6 46.799999 21.6 47 17M 34 21C 34 19.6 33.599998 18.200001 34 17M 43 33C 43.200001 31.799999 44 30.799999 45 31C 46.400002 31.200001 47.799999 30.799999 49 31C 50.200001 31.200001 50.599998 32 51 33C 51.400002 34 50.200001 35 49 35C 47.799999 35 46.400002 34.599998 45 35C 44 35.200001 43.200001 34.200001 43 33M 30 23C 30.200001 21.799999 30.799999 20.799999 32 21C 33.400002 21.200001 34.799999 20.6 36 21C 37 21.4 38.400002 22 38 23C 37.599998 24 37.200001 25 36 25C 34.599998 25 33.400002 24.799999 32 25C 31 25.200001 29.799999 24 30 23M 17 29C 17.4 28 18 27.200001 19 27C 20.4 26.799999 21.6 26.799999 23 27C 24 27.200001 24.6 28 25 29C 25.4 30 24.200001 31 23 31C 21.6 31 20.4 31 19 31C 17.799999 31 17 30.200001 17 29M 44 48C 44.200001 49.599998 45.599998 50.599998 47 51C 48.599998 51.400002 49.799999 49.599998 50 48C 50.400002 46.400002 48.799999 45.200001 47 45C 45.400002 44.799999 43.599998 46.400002 44 48M 31 48C 31 49.599998 32.400002 51 34 51C 35.599998 51 36.799999 49.599998 37 48C 37.200001 46.400002 35.599998 45 34 45C 32.400002 45 31.4 46.400002 31 48M 18 48C 17.6 49.599998 19.4 51.599998 21 51C 22.6 50.400002 23.6 49.599998 24 48C 24.4 46.400002 22.6 44.599998 21 45C 19.4 45.400002 18 46.400002 18 48"></path><path d="M 13 11L 55 11C 55 11 57 11 57 13L 57 55C 57 55 57 57 55 57L 13 57C 13 57 11 57 11 55L 11 13C 11 13 11 11 13 11M 34 39L 34 25M 47.062 39L 47.062 35M 21 27L 21 17M 21 39L 21 31M 47.062 31L 47.062 17M 34 21L 34 17M 43.062 33C 43.062 31.89543 43.957432 31 45.062 31L 49.062 31C 50.166569 31 51.062 31.89543 51.062 33C 51.062 34.104568 50.166569 35 49.062 35L 45.062 35C 43.957432 35 43.062 34.104568 43.062 33ZM 30 23C 30 21.895432 30.89543 21 32 21L 36 21C 37.104568 21 38 21.895432 38 23C 38 24.104568 37.104568 25 36 25L 32 25C 30.89543 25 30 24.104568 30 23ZM 17 29C 17 27.89543 17.895432 27 19 27L 23 27C 24.104568 27 25 27.89543 25 29C 25 30.10457 24.104568 31 23 31L 19 31C 17.895432 31 17 30.10457 17 29ZM 44.084 48C 44.084 49.656857 45.427147 51 47.084 51C 48.740856 51 50.084 49.656857 50.084 48C 50.084 46.343147 48.740856 45 47.084 45C 45.427147 45 44.084 46.343147 44.084 48M 31 48C 31 49.656857 32.343147 51 34 51C 35.656853 51 37 49.656857 37 48C 37 46.343147 35.656853 45 34 45C 32.343147 45 31 46.343147 31 48M 18 48C 18 49.656857 19.343147 51 21 51C 22.656855 51 24 49.656857 24 48C 24 46.343147 22.656855 45 21 45C 19.343147 45 18 46.343147 18 48"></path></g></g></g><g id="g-root-tx_finecont_8ri25b42yx-stroke" data-item-order="0" transform="translate(76.00048828125, 232)"></g><g id="g-root-tx_limitedr_1utnhh65b2pz4-stroke" data-item-order="0" transform="translate(376.00048828125, 556)"></g><g id="g-root-tx_increase_vccenu5b2nm4-stroke" data-item-order="0" transform="translate(376.00048828125, 220)"></g><g id="g-root-1_4g29mi5b1beu-stroke" data-item-order="0" transform="translate(16.00048828125, 304)"><g id="1_4g29mi5b1beu-stroke" fill="none" stroke-linecap="round" stroke-linejoin="round" stroke-miterlimit="4" stroke="#f4f4f4" stroke-width="2"><g><path d="M 44 17.200001C 44.400002 20.6 46.799999 24 50.200001 23.6C 53.599998 23 56.400002 20.799999 56.400002 17.200001C 56.599998 13.8 53.599998 10.4 50.200001 11C 46.799999 11.6 42.799999 14 44 17.200001M 51 50.799999C 49.200001 50.400002 47.599998 50 45.799999 49.400002C 44.799999 47.200001 44.799999 44.799999 45 42.599998C 47 38.200001 47.400002 33.200001 48 28.4C 48.200001 27.4 48 26.6 47.599998 25.799999C 47.200001 25 46.200001 24.799999 45.400002 24.6C 42.599998 23.799999 39.599998 24.6 36.799999 23.799999C 36.400002 21.4 34 20 33.200001 17.799999C 32 16.6 30.6 16.6 28.799999 17C 27.200001 17.4 26.799999 20 28 21.4C 28.6 23.6 29.6 26.200001 31.6 27.799999C 32.200001 28.799999 33 29.799999 34.200001 29.799999C 36.599998 30 38.799999 30.6 41.200001 30.4C 41 33.599998 41 37 39.200001 39.599998C 36.599998 40.799999 33.599998 41.400002 30.799999 41.400002C 29.6 41.400002 29.200001 42.599998 28.4 43.400002C 26.4 46 25.200001 49.599998 25.200001 52.799999C 25.4 54.599998 25.6 56.400002 27.200001 56.799999C 29 57.200001 31 56.599998 31.200001 54.799999C 31.6 52.200001 32.799999 49.799999 33.799999 47.200001C 35.599998 47 37.599998 47 39.200001 46.200001C 38.599998 48 39.200001 50.200001 39.799999 52.200001C 40.200001 53.400002 40.799999 54.599998 42 54.799999C 44.599998 55.200001 47 55.799999 49.400002 56.799999C 51 57.599998 53 56.400002 53.200001 54.799999C 53.599998 53 52.799999 51.200001 51 50.799999M 32.200001 15.2C 31.799999 17.200001 34 18.6 36 18.799999C 38 19.200001 40 17.200001 39.599998 15.2C 39.200001 13.2 38 11.2 36 11.6C 34 11.8 31.6 13.2 32.200001 15.2M 28 21.4C 23.799999 22.4 20 27.799999 23.6 30.799999C 26.4 33.200001 28.6 36.799999 23.6 40.799999M 11.6 23C 11.4 24.6 13 25.4 14.6 26C 16 26.6 17.4 24.6 17.6 23C 17.6 21.4 16.200001 20 14.6 20C 12.8 20 12 21.4 11.6 23M 17.6 22.6C 16.200001 18.799999 17.799999 14.8 17.6 11C 18.799999 12.2 20.4 13 21.6 14.2"></path><path d="M 43.950001 17.271999C 43.94952 20.736267 46.757729 23.544865 50.222 23.544865C 53.686268 23.544865 56.494476 20.736267 56.493999 17.271999C 56.494476 13.807732 53.686268 10.999134 50.222 10.999134C 46.757729 10.999134 43.94952 13.807732 43.949997 17.271999M 51.084 50.848L 45.787998 49.334L 45.032001 42.521999L 48.062 28.384001C 48.251091 27.510166 48.058224 26.597168 47.531864 25.874474C 47.005505 25.151781 46.195705 24.68811 45.306 24.599998L 36.799999 23.756001L 33.220001 17.784C 32.247429 16.348061 30.294941 15.972427 28.858999 16.945C 27.423059 17.917574 27.047426 19.87006 28.02 21.306L 31.6 27.782C 32.018135 28.901785 33.038227 29.685097 34.227997 29.799999L 41.192001 30.496L 39.222 39.695999L 30.788 41.384003C 29.684456 41.603691 28.783566 42.398457 28.427999 43.466L 25.292 52.866001C 24.744429 54.508957 25.632267 56.284756 27.275145 56.832565C 28.918022 57.380375 30.693951 56.492798 31.241999 54.849998L 33.802002 47.166L 39.118 46.104L 39.785999 52.104C 39.926517 53.368908 40.818031 54.423233 42.042 54.771999L 49.360001 56.880001C 51.025692 57.356071 52.761932 56.391693 53.238003 54.726002C 53.714073 53.06031 52.749695 51.324074 51.084003 50.848003ZM 32.260002 15.202C 32.260002 17.237722 33.910278 18.888 35.945999 18.888C 37.98172 18.888 39.632 17.237722 39.632 15.202C 39.632 13.166279 37.98172 11.516 35.945999 11.516C 33.910278 11.516 32.260002 13.166279 32.260002 15.202M 28.021999 21.306C 24.293999 23.546 20.98 26.950001 23.574001 30.84C 25.666 33.975998 27.344 35.604 23.598 40.784M 11.506001 23C 11.506001 24.656855 12.849146 26 14.506001 26C 16.162853 26 17.506001 24.656855 17.506001 23C 17.506001 21.343147 16.162853 20 14.506001 20C 12.849146 20 11.506001 21.343147 11.506001 23M 17.506001 22.5L 17.506001 11L 21.688 14.136"></path></g></g></g><g id="g-root-tx_specific_8vvrqy5b4268-stroke" data-item-order="0" transform="translate(76.00048828125, 304)"></g><g id="g-root-wren_mcygqi5bgrgp-stroke" data-item-order="0" transform="translate(316.00048828125, 304)"><g id="wren_mcygqi5bgrgp-stroke" fill="none" stroke-linecap="round" stroke-linejoin="round" stroke-miterlimit="4" stroke="#f4f4f4" stroke-width="2"><g><path d="M 55.942856 22.342857C 55.942856 21.657143 55.257141 20.971428 54.914288 20.628571C 53.542858 23.714287 49.428574 24.4 48.057144 27.485714C 47.714287 28.171429 46.342857 28.171429 45.657143 28.514286C 44.628574 28.857143 43.600002 28.171429 42.914288 27.485714C 41.885715 26.800001 41.542858 25.771429 40.514286 25.085714C 38.799999 24.4 39.142857 21.657143 40.514286 20.285715C 42.914288 18.228571 45.314285 15.828571 47.371429 13.428572C 46.685715 12.742857 46.342857 12.4 45.657143 12.057143C 40.857143 11.371428 36.742859 13.771429 32.628571 16.857143C 28.857143 19.942858 28.857143 26.457144 31.6 30.571428C 26.114285 37.428574 17.542858 41.885715 12.742857 49.085712C 12.4 49.771431 11.714286 50.799999 11.714286 51.485718C 11.714286 52.514286 12.057143 53.542858 12.742857 53.885715C 13.428572 54.228569 13.428572 54.914288 14.114285 55.257141C 14.8 55.942856 15.485714 55.942856 16.514286 56.285713C 17.199999 56.628574 18.571428 55.942856 18.914286 55.257141C 23.371429 47.714287 33.314285 44.285713 37.771431 36.742859C 42.57143 37.428574 48.057144 38.799999 51.142857 35.028572C 54.228569 31.257143 56.628574 27.142857 55.942856 22.342857"></path><path d="M 56.045715 22.308571C 55.91172 21.581938 55.47554 20.946358 54.845715 20.559999L 47.988571 27.417143C 47.342342 28.087606 46.451199 28.466375 45.52 28.466375C 44.588799 28.466375 43.697659 28.087606 43.05143 27.417143L 40.445717 25.085714C 39.138939 23.752537 39.138939 21.618893 40.445717 20.285715L 47.302856 13.428572C 47.000103 12.717376 46.397224 12.177299 45.657143 11.954286C 40.775776 10.980844 35.766331 12.873705 32.748444 16.831947C 29.730558 20.790192 29.231665 26.122034 31.462858 30.571428L 12.742857 49.119999C 12.083157 49.765053 11.711284 50.648769 11.711284 51.57143C 11.711284 52.494087 12.083157 53.377804 12.742857 54.022858L 13.977142 55.257141C 14.622196 55.916847 15.505913 56.288715 16.428572 56.288715C 17.351231 56.288715 18.234947 55.916847 18.879999 55.257141L 37.600002 36.57143C 42.048428 38.690815 47.31094 38.126667 51.209045 35.112518C 55.107147 32.098373 56.977451 27.147182 56.045715 22.308573Z"></path></g></g></g><g id="g-root-tx_moremain_147cxtm5b2pz7-stroke" data-item-order="0" transform="translate(376.00048828125, 304)"></g><g id="g-root-unlo_2qkoq5bmaz1-stroke" data-item-order="0" transform="translate(16.00048828125, 388)"><g id="unlo_2qkoq5bmaz1-stroke" fill="none" stroke-linecap="round" stroke-linejoin="round" stroke-miterlimit="4" stroke="#f4f4f4" stroke-width="2"><g><path d="M 13 17.6C 12.8 22.6 14.6 28 13 32.799999C 14.2 43 19.4 53.599998 29.4 55.799999C 30.200001 56 31 56 31.6 56.599998C 33 57.599998 34.799999 57.200001 36.400002 56.599998C 37 56.200001 37.799999 56.200001 38.599998 55.799999C 47.200001 50 52.599998 43 55 32.799999C 55.400002 27.799999 55.400002 22.6 55 17.6C 55 16.4 54.200001 15.2 53.200001 14.8C 47 12.6 40.599998 11.2 34 11C 27.6 12 20.4 11.2 14.8 14.8C 13.8 15.4 13 16.4 13 17.6M 27 27C 31.6 27.4 36.400002 26.6 41 27C 41 27 42.799999 27 43 29C 43.599998 33 42.200001 37 43 41C 43 41 43 42.599998 41 43C 36.400002 43.799999 31.6 42.200001 27 43C 27 43 25.799999 42.799999 25 41C 23.4 37.200001 25.6 33 25 29C 25 29 25 27.200001 27 27M 31.6 35C 32 36.200001 32.599998 37.799999 34 37.599998C 35.400002 37.200001 36.400002 36.400002 36.599998 35C 36.599998 33.599998 35.400002 32.599998 34 32.599998C 32.599998 32.400002 31 33.799999 31.6 35M 39 27C 39.200001 25.6 38.599998 24.200001 39 23C 39.799999 20.4 36.799999 17.6 34 18C 31.200001 18.4 28.799999 20.200001 29 23"></path><path d="M 13 17.540001L 13 32.82C 13.118423 43.160465 19.686085 52.324833 29.440001 55.760002L 31.68 56.580002C 33.176018 57.139786 34.823982 57.139786 36.32 56.580002L 38.559998 55.759998C 48.313915 52.324833 54.88158 43.160465 55 32.82L 55 17.540001C 54.994053 16.319199 54.263035 15.218737 53.139999 14.74C 47.079685 12.208112 40.567623 10.935639 34 11C 27.432373 10.935639 20.920311 12.208112 14.86 14.74C 13.736967 15.218737 13.005946 16.319199 13 17.540001ZM 27 27L 41 27C 41 27 43 27 43 29L 43 41C 43 41 43 43 41 43L 27 43C 27 43 25 43 25 41L 25 29C 25 29 25 27 27 27M 31.5 35C 31.5 36.380714 32.619289 37.5 34 37.5C 35.380714 37.5 36.5 36.380714 36.5 35C 36.5 33.619289 35.380714 32.5 34 32.5C 32.619289 32.5 31.5 33.619289 31.5 35M 39 27L 39 23C 39 20.238577 36.761425 18 34 18C 31.238577 18 29 20.238577 29 23"></path></g></g></g><g id="g-root-tx_enhanced_dl2e625b2pzb-stroke" data-item-order="0" transform="translate(76.00048828125, 388)"></g><g id="g-root-404_1hgxxru5bfcaw-stroke" data-item-order="0" transform="translate(316.00048828125, 388)"><g id="404_1hgxxru5bfcaw-stroke" fill="none" stroke-linecap="round" stroke-linejoin="round" stroke-miterlimit="4" stroke="#f4f4f4" stroke-width="2"><g><path d="M 15 16C 27.6 14.4 40.599998 13.6 53 16C 53 16 57.400002 16 57 20C 55.799999 29.200001 56.599998 38.599998 57 48C 57 48 56.799999 51 53 52C 40.799999 55.200001 27.6 53 15 52C 15 52 11.6 52 11 48C 9.8 38.799999 10.2 29.200001 11 20C 11 20 11 15.6 15 16M 11 26C 26.4 25.4 41.799999 24.799999 57 26M 18 20.6C 18.200001 20.4 18.4 20.799999 18.6 21C 18.6 21.200001 18.200001 21.6 18 21.6C 17.799999 21.4 17.6 21.200001 17.6 21C 17.4 20.799999 17.799999 20.6 18 20.6M 24 20.6C 24.200001 20.6 24.4 20.799999 24.6 21C 24.6 21.200001 24.200001 21.6 24 21.6C 23.799999 21.4 23.4 21.200001 23.6 21C 23.6 20.799999 23.799999 20.4 24 20.6M 30 20.6C 30.200001 20.6 30.4 20.799999 30.6 21C 30.6 21.200001 30.200001 21.6 30 21.6C 29.799999 21.4 29.6 21.200001 29.6 21C 29.4 20.799999 29.799999 20.4 30 20.6M 36 40C 35.599998 41.599998 34.599998 43.599998 33 43C 31.4 42.400002 30.4 41.599998 30 40C 29.799999 38.799999 30.200001 37.400002 30 36C 29.799999 34.400002 31.4 33 33 33C 34.599998 33 35.400002 34.400002 36 36C 36.400002 37.200001 36.400002 38.799999 36 40M 26 43C 26 42.400002 26 41.599998 26 41M 26 41C 27 38.599998 25.200001 35.599998 26 33C 22.6 33.599998 21.6 37.799999 20 41C 22 40.599998 24 41 26 41M 46 43C 46 42.400002 46 41.599998 46 41M 46 41C 47 38.599998 45.599998 35.599998 46 33C 42.599998 33.799999 40.799999 37.599998 40 41C 42 40.599998 44.200001 41.799999 46 41"></path><path d="M 15 16.007999L 53 16.007999C 53 16.007999 57 16.007999 57 20.007999L 57 48.007999C 57 48.007999 57 52.007999 53 52.007999L 15 52.007999C 15 52.007999 11 52.007999 11 48.007999L 11 20.007999C 11 20.007999 11 16.007999 15 16.007999M 11 26.007999L 57 26.007999M 18 20.507999C 18.276142 20.507999 18.5 20.731857 18.5 21.007999C 18.5 21.284142 18.276142 21.507999 18 21.507999C 17.723858 21.507999 17.5 21.284142 17.5 21.007999C 17.5 20.731857 17.723858 20.507999 18 20.507999M 24 20.507999C 24.276142 20.507999 24.5 20.731857 24.5 21.007999C 24.5 21.284142 24.276142 21.507999 24 21.507999C 23.723858 21.507999 23.5 21.284142 23.5 21.007999C 23.5 20.731857 23.723858 20.507999 24 20.507999M 30 20.507999C 30.276142 20.507999 30.5 20.731857 30.5 21.007999C 30.5 21.284142 30.276142 21.507999 30 21.507999C 29.723858 21.507999 29.5 21.284142 29.5 21.007999C 29.5 20.731857 29.723858 20.507999 30 20.507999M 36 40.028C 36 41.684853 34.656853 43.028 33 43.028C 31.343147 43.028 30 41.684853 30 40.028L 30 36.028C 30 34.371147 31.343147 33.028 33 33.028C 34.656853 33.028 36 34.371147 36 36.028ZM 25.973999 43.007999L 25.973999 41.007999M 25.973999 41L 25.973999 33.02C 22.822506 34.57328 20.602619 37.538578 20 41L 25.973999 41M 46 43.007999L 46 41.007999M 46 41L 46 33.02C 42.848507 34.57328 40.62862 37.538578 40.026001 41L 46 41"></path></g></g></g><g id="g-root-tx_potentia_18n6fy25b2p6y-stroke" data-item-order="0" transform="translate(376.00048828125, 388)"></g><g id="g-root-spee_1uo14je5bky6c-stroke" data-item-order="0" transform="translate(16.00048828125, 472)"><g id="spee_1uo14je5bky6c-stroke" fill="none" stroke-linecap="round" stroke-linejoin="round" stroke-miterlimit="4" stroke="#f4f4f4" stroke-width="2"><g><path d="M 11 34C 10.6 46.799999 21.4 56.400002 34 57C 46.599998 57.599998 60 46.400002 57 34C 54 21.6 46.599998 12.6 34 11C 21.4 9.4 9.6 21.4 11 34M 31 34C 31.200001 35.599998 32.400002 36.400002 34 37C 35.599998 37.599998 36.799999 35.599998 37 34C 37.200001 32.400002 35.599998 30.799999 34 31C 32.400002 31.200001 30.799999 32.400002 31 34M 36.200001 31.799999C 40 29.200001 43.200001 25.6 46 22M 14.8 33C 16.200001 32.799999 17.6 33 18.799999 33M 16.4 41.200001C 17.6 40.799999 19 40.200001 20.200001 39.799999M 51.599998 41.200001C 50.599998 40.400002 49 40.400002 47.799999 39.799999M 53 33C 51.599998 32.799999 50.200001 33.400002 49 33M 51.599998 26.799999C 50.400002 27.4 49 27.6 47.799999 28.200001M 42.599998 16.4C 42.400002 17.799999 41.200001 18.799999 41 20.200001M 35 15.4C 35.200001 16.6 35.599998 18.200001 35 19.4M 26.799999 16.4C 27.200001 17.799999 27.6 19 28.200001 20.200001M 20.6 20.6C 21.4 21.6 22.799999 22.200001 23.4 23.4M 16.4 26.799999C 17.4 27.6 19.200001 27.4 20.200001 28.200001M 26 43C 31.4 43 36.799999 43.799999 42 43C 42 43 42.799999 43 43 44C 43.400002 45.200001 43.599998 46.799999 43 48C 43 48 43 48.799999 42 49C 36.799999 49.599998 31.200001 49.799999 26 49C 26 49 25.200001 49 25 48C 24.799999 46.599998 24.6 45.200001 25 44C 25 44 25 43 26 43"></path><path d="M 11 34C 11 46.702549 21.297451 57 34 57C 46.702549 57 57 46.702549 57 34C 57 21.297451 46.702549 11 34 11C 21.297451 11 11 21.297451 11 34M 31 34C 31 35.656853 32.343147 37 34 37C 35.656853 37 37 35.656853 37 34C 37 32.343147 35.656853 31 34 31C 32.343147 31 31 32.343147 31 34M 36.122002 31.879999L 46.02 21.98M 14.888 33L 18.888 33M 16.444 41.27L 20.142 39.739998M 51.551998 41.271999L 47.858002 39.739998M 52.998001 33L 49 32.998001M 51.551998 26.73L 47.858002 28.26M 42.532001 16.448L 41 20.139999M 35 15.37L 35 19.369999M 26.73 16.445999L 28.26 20.139999M 20.566 20.563999L 23.392 23.392M 16.448 26.728001L 20.142 28.26M 26 43L 42 43C 42 43 43 43 43 44L 43 48C 43 48 43 49 42 49L 26 49C 26 49 25 49 25 48L 25 44C 25 44 25 43 26 43"></path></g></g></g><g id="g-root-tx_optimize_i0vwai5b2p72-stroke" data-item-order="0" transform="translate(76.00048828125, 472)"></g><g id="g-root-2_4o6cl65bdy4v-stroke" data-item-order="0" transform="translate(316.00048828125, 472)"><g id="2_4o6cl65bdy4v-stroke" fill="none" stroke-linecap="round" stroke-linejoin="round" stroke-miterlimit="4" stroke="#f4f4f4" stroke-width="2"><g><path d="M 41 34C 38.599998 33.799999 36.200001 34.799999 34 34C 32.799999 30.6 32.799999 26.4 34 23M 19 11C 28.799999 9.6 39 10 49 11C 49 11 58.400002 11.2 57 19C 55.400002 28.799999 57.599998 39 57 49C 57 49 56.799999 58.400002 49 57C 39.200001 55.200001 29 57.200001 19 57C 19 57 11.2 57 11 49C 10.8 39 12.8 28.799999 11 19C 11 19 11.2 12.4 19 11M 17 34C 15.4 43.200001 24.6 51 34 51C 43.400002 51 52 43.400002 51 34C 50 24.6 42.799999 14 34 17C 25.200001 20 17.200001 24.6 17 34"></path><path d="M 41.003998 34.001999L 34.003998 34.001999L 34.003998 23.001999M 19 11.002L 49 11.002C 49 11.002 57 11.002 57 19.001999L 57 49.001999C 57 49.001999 57 57.001999 49 57.001999L 19 57.001999C 19 57.001999 11 57.001999 11 49.001999L 11 19.001999C 11 19.001999 11 11.002 19 11.002M 17 34.001999C 17 43.390842 24.61116 51.001999 34 51.001999C 43.38884 51.001999 51 43.390842 51 34.001999C 51 24.613159 43.38884 17.001999 34 17.001999C 24.61116 17.001999 17 24.613159 17 34.001999"></path></g></g></g><g id="g-root-tx_higherde_1lymybe5b2nm1-stroke" data-item-order="0" transform="translate(376.00048828125, 460)"></g><g id="g-root-func_18hk30a5bjk0b-stroke" data-item-order="0" transform="translate(16.00048828125, 556)"><g id="func_18hk30a5bjk0b-stroke" fill="none" stroke-linecap="round" stroke-linejoin="round" stroke-miterlimit="4" stroke="#f4f4f4" stroke-width="2"><g><path d="M 10 10M 37 34C 32.799999 25.4 23.4 20.4 19 12C 28.799999 13.6 39.200001 14.4 49 12C 48.799999 13 48.599998 14 49 15M 10 10M 37 34C 30.799999 41.200001 24 48 19 56C 28.799999 54.200001 39.200001 53.799999 49 56C 49.200001 55 49.200001 54 49 53"></path><path d="M 10 10M 37 34L 19 12L 49 12L 49 15M 10 10M 37 34L 19 56L 49 56L 49 53"></path></g></g></g><g id="g-root-tx_customfu_qwiwje5b2oed-stroke" data-item-order="0" transform="translate(76.00048828125, 556)"></g><g id="g-root-stam_qv9v7e5bcidi-stroke" data-item-order="0" transform="translate(316.00048828125, 556)"><g id="stam_qv9v7e5bcidi-stroke" fill="none" stroke-linecap="round" stroke-linejoin="round" stroke-miterlimit="4" stroke="#f4f4f4" stroke-width="2"><g><path d="M 55 51C 54.799999 52.400002 54.799999 53.599998 55 55C 55.200001 56 54 56.599998 53 57C 41 61 27.6 56.200001 15 57C 13.8 57 13.4 56 13 55C 12.6 53.799999 12.6 52.200001 13 51M 53 43C 27.4 46.200001 42 25.200001 43 20C 45.400002 8.2 26.799999 8.2 25 20C 24.200001 25.200001 40.799999 40.599998 15 43C 12.8 43.200001 10.4 45 11 47C 11.2 47.599998 10.8 48.400002 11 49C 11.2 50 12 50.799999 13 51C 26.6 54.200001 41.599998 54.799999 55 51C 56 50.799999 56.799999 50 57 49C 57.200001 48.400002 57 47.599998 57 47C 57 44.799999 55.200001 43.200001 53 43"></path><path d="M 55 51L 55 55C 55 56.104568 54.104568 57 53 57L 15 57C 13.895431 57 13 56.104568 13 55L 13 51M 53 43C 27.23 43 43 25.200001 43 19.934C 43 8.028 25 8.016 25 19.934C 25 25.262001 40.823997 43 15 43C 12.790861 43 11 44.790859 11 47L 11 49C 11 50.104568 11.895431 51 13 51L 55 51C 56.104568 51 57 50.104568 57 49L 57 47C 57 44.790859 55.209141 43 53 43Z"></path></g></g></g><g id="g-root-tx_routelev_vb3dbu5bchl9-stroke" data-item-order="0" transform="translate(148.00048828125, 40)"></g><g id="g-root-4_dg2ibe5bi48y-stroke" data-item-order="0" transform="translate(316.00048828125, 220)"><g id="4_dg2ibe5bi48y-stroke" fill="none" stroke-linecap="round" stroke-linejoin="round" stroke-miterlimit="4" stroke="#f4f4f4" stroke-width="2"><g><path d="M 16.857143 18.571428C 15.828571 22.342857 19.942858 25.428572 23.714287 25.428572C 27.485714 25.428572 29.200001 22 30.571428 18.571428C 31.942858 15.142858 27.485714 12.4 23.714287 11.714286C 19.942858 11.028571 18.228571 15.142858 16.857143 18.571428M 16.857143 49.428574C 16.171429 53.200001 19.942858 55.600002 23.714287 56.285713C 27.485714 56.971428 30.228573 53.200001 30.571428 49.428574C 30.914286 45.657143 27.485714 43.600002 23.714287 42.57143C 19.942858 41.542858 16.171429 45.657143 16.857143 49.428574M 37.428574 35.714287C 37.085716 39.485718 40.514286 42.228569 44.285713 42.57143C 48.057144 42.914288 50.114285 39.485718 51.142857 35.714287C 52.171429 31.942858 48.057144 29.542856 44.285713 28.857143C 40.514286 28.171429 36.399998 31.942858 37.428574 35.714287M 23.714287 25.428572C 24.057142 31.257143 22 37.085716 23.714287 42.57143M 37.428574 35.714287C 36.399998 36.057144 35.028572 35.371429 34 35.714287C 28.514286 37.428574 25.085714 30.914286 23.714287 25.428572"></path><path d="M 16.857143 18.571428C 16.857143 22.358524 19.927191 25.428572 23.714287 25.428572C 27.501381 25.428572 30.571428 22.358524 30.571428 18.571428C 30.571428 14.784333 27.501381 11.714286 23.714287 11.714286C 19.927191 11.714286 16.857143 14.784333 16.857143 18.571428M 16.857143 49.428574C 16.857143 53.215668 19.927191 56.285713 23.714287 56.285713C 27.501381 56.285713 30.571428 53.215668 30.571428 49.428574C 30.571428 45.641476 27.501381 42.57143 23.714287 42.57143C 19.927191 42.57143 16.857143 45.641476 16.857143 49.428574M 37.428574 35.714287C 37.428574 39.501381 40.498619 42.57143 44.285713 42.57143C 48.072811 42.57143 51.142857 39.501381 51.142857 35.714287C 51.142857 31.927191 48.072811 28.857143 44.285713 28.857143C 40.498619 28.857143 37.428574 31.927191 37.428574 35.714287M 23.714287 25.428572L 23.714287 42.57143M 37.428574 35.714287L 34 35.714287C 28.319357 35.714287 23.714287 31.109217 23.714287 25.428572"></path></g></g></g></g></g></svg>